<svg t="1731403127084" class="icon" viewBox="0 0 1024 1024" version="1.1" xmlns="http://www.w3.org/2000/svg" p-id="5301" width="200" height="200"><path d="M629.443 890.71q34.33 9.937 72.273 22.585t67.756 25.295 45.17 23.489 4.517 17.165q-28.909 15.358-76.338 25.295t-103.892 14.906-116.54 4.517-112.926-5.42-93.955-14.906-59.173-24.392q-9.938-8.131 5.42-19.424t44.72-23.488 66.852-23.94 71.82-21.683q16.262-4.517 24.844 0.904t16.262 13.551 18.971 15.358 32.975 7.227 32.523-7.227 18.971-15.358 16.262-13.551 23.488-0.904zM371.068 250.191q-2.71-6.324 1.807-11.745t11.744-9.937q8.13-4.517 19.875-9.034l-5.42-10.841q-3.614-6.324-9.034-16.262t-12.648-25.295q-8.13-15.358-5.872-27.103t10.84-15.358 20.327 2.71 22.586 26.2q10.84 20.778 30.264 51.494t39.298 59.625q23.489 34.33 48.784 70.466l57.819-46.074q-0.904-9.937-3.614-20.778-1.807-9.938-5.42-21.682t-10.841-25.296q-6.324-12.647-4.97-24.392t6.776-17.616 14.003-4.969 15.81 12.648 16.713 23.94 17.617 22.134l19.875 23.488 87.63-18.971 14.455 33.426-48.784 32.523q-20.779 13.55-42.009 27.554t-35.685 23.037-29.812 21.682-28.006 29.812-20.778 39.298-8.13 49.236v69.563l-1.808 84.92v77.694l1.807 47.88 7.227 23.94 11.745 20.328q7.227 9.937 15.358 18.971-6.324 9.034-15.358 17.165-8.131 7.227-19.875 13.551t-28.006 8.13-29.36-2.258-23.038-8.582q-10.84-5.42-19.875-13.551 3.614-16.262 7.227-33.426 2.71-15.358 4.97-32.523t2.258-33.426v-261.99q0-24.391 1.807-47.88t4.517-41.557q3.613-21.682 7.227-40.653-15.358-28.006-28.006-49.688-10.84-18.068-21.23-33.426t-14.003-13.551-10.84 2.258-14.455-0.903-14.003-4.969-9.486-9.937zM310.54 418.226q-18.069 20.778-38.847 31.167T232.846 464.3q-21.682 4.517-41.557 3.613-8.13-12.647-10.84-28.909-1.807-14.454 0.903-36.136t18.068-52.398q14.455-29.812 40.202-45.622t50.14-23.037q28.908-8.13 60.528-8.13-9.035 16.26-9.486 32.974t-1.355 34.33-5.873 37.04-23.036 40.2z m551.08-84.017q18.068 18.068 26.65 32.522t11.293 25.296q3.614 12.648 0.903 23.489-14.454 6.323-30.716 9.034-13.55 1.807-31.619 0.451t-36.136-11.292q-18.069-9.034-27.103-21.23t-14.906-24.392-10.84-23.94-15.81-20.78q21.681-9.033 45.17-11.744 18.972-1.806 41.557 1.807t41.557 20.779zM194 149.009q-28.91-9.937-53.302-28.005T98.238 85.77Q77.46 65.896 60.295 43.31q21.682-23.49 46.074-33.427Q127.147 0.85 155.153 3.11t59.625 31.167q31.62 29.813 48.784 50.591t27.102 33.427q9.938 15.358 14.455 25.295-9.937 9.034-26.199 12.648-13.551 3.613-34.781 3.162t-50.14-10.39zM841.745 8.982q46.074-11.744 72.273-8.13T954.67 14.4q16.261 10.841 22.585 29.813-11.744 18.068-28.005 36.136-13.552 15.358-33.427 32.975t-45.17 30.264q-25.296 13.551-46.977 17.617t-39.299 6.775-29.812 9.034-18.52 23.489q-1.807-45.17 8.13-84.017 4.517-16.262 11.745-32.975t18.52-31.167 28.005-25.748 39.299-17.616z" p-id="5302" fill="#ffffff"></path></svg>