<svg t="1731329516179" class="icon" viewBox="0 0 1024 1024" version="1.1" xmlns="http://www.w3.org/2000/svg" p-id="9653" width="200" height="200"><path d="M512 56.888889a455.111111 455.111111 0 1 1 0 910.222222A455.111111 455.111111 0 0 1 512 56.888889z m0 56.888889a398.222222 398.222222 0 1 0 0 796.444444A398.222222 398.222222 0 0 0 512 113.777778zM400.156444 296.618667l3.982223 3.242666L512 407.779556l107.861333-107.918223a28.444444 28.444444 0 0 1 36.295111-3.242666l3.982223 3.242666a28.444444 28.444444 0 0 1 3.242666 36.295111l-3.242666 3.982223L559.217778 440.888889h80.725333a28.444444 28.444444 0 0 1 5.12 56.433778l-5.12 0.455111H540.615111V568.888889h99.384889a28.444444 28.444444 0 0 1 5.12 56.433778l-5.12 0.455111H540.615111v99.555555a28.444444 28.444444 0 0 1-56.433778 5.12l-0.455111-5.12V625.777778H384a28.444444 28.444444 0 0 1-5.12-56.433778L384 568.888889h99.726222V497.777778H384a28.444444 28.444444 0 0 1-5.12-56.433778l5.12-0.455111h80.668444L363.861333 340.138667a28.444444 28.444444 0 0 1 36.295111-43.52z" fill="#ffffff" p-id="9654"></path></svg>
