<!-- X图标 -->
<svg t="1731256975027" class="icon" viewBox="0 0 1024 1024" version="1.1" xmlns="http://www.w3.org/2000/svg" p-id="4310" width="200" height="200"><path d="M740.644571 892.050286a42.934857 42.934857 0 0 0 22.528-6.144 38.253714 38.253714 0 0 0 10.24-54.272L550.180571 502.930286l223.232-327.68a45.421714 45.421714 0 0 0 7.168-22.528 38.253714 38.253714 0 0 0-38.912-38.912c-14.336 0-25.6 5.851429-33.792 17.408L507.172571 441.490286l-199.68-310.272a38.253714 38.253714 0 0 0-32.768-17.408 46.665143 46.665143 0 0 0-22.528 6.144 38.253714 38.253714 0 0 0-17.408 32.768c0 6.802286 2.413714 14.336 7.168 22.528l223.232 327.68-223.232 328.704a38.253714 38.253714 0 0 0 10.24 54.272 46.665143 46.665143 0 0 0 22.528 6.144c13.677714 0 24.576-5.851429 32.768-17.408l199.68-310.272 200.704 310.272a38.253714 38.253714 0 0 0 32.768 17.408z" fill="#1296db" p-id="4311"></path></svg>
